<svg width="19" height="19" viewBox="0 0 19 19" fill="none" xmlns="http://www.w3.org/2000/svg">
<path fill-rule="evenodd" clip-rule="evenodd" d="M9.11686 0.800049C4.31329 0.800049 0.417664 4.69516 0.417664 9.50034C0.417664 13.3436 2.91025 16.6047 6.36739 17.7557C6.80267 17.8353 6.96129 17.5666 6.96129 17.3359C6.96129 17.1292 6.95381 16.5823 6.94954 15.8565C4.5296 16.382 4.01901 14.69 4.01901 14.69C3.62325 13.6849 3.05285 13.4173 3.05285 13.4173C2.26294 12.8779 3.11267 12.8886 3.11267 12.8886C3.9859 12.95 4.44521 13.7853 4.44521 13.7853C5.22124 15.1147 6.48168 14.7306 6.97732 14.5079C7.05636 13.9461 7.28121 13.5626 7.52956 13.3452C5.59777 13.1252 3.56664 12.3791 3.56664 9.04529C3.56664 8.09515 3.90579 7.31913 4.46231 6.7108C4.37258 6.49076 4.07402 5.6063 4.54776 4.40834C4.54776 4.40834 5.27785 4.17441 6.93993 5.29973C7.6337 5.10692 8.37822 5.01079 9.11793 5.00705C9.85711 5.01079 10.6011 5.10692 11.2959 5.29973C12.9569 4.17441 13.686 4.40834 13.686 4.40834C14.1608 5.6063 13.8622 6.49076 13.773 6.7108C14.3306 7.31913 14.6671 8.09515 14.6671 9.04529C14.6671 12.3876 12.6328 13.123 10.6951 13.3383C11.007 13.6069 11.2853 14.1378 11.2853 14.9496C11.2853 16.1123 11.2746 17.0507 11.2746 17.3359C11.2746 17.5688 11.4316 17.8396 11.8728 17.7546C15.3272 16.6015 17.8177 13.3431 17.8177 9.50034C17.8177 4.69516 13.922 0.800049 9.11686 0.800049Z" fill="white"/>
</svg>
