<svg width="19" height="19" viewBox="0 0 19 19" fill="none" xmlns="http://www.w3.org/2000/svg">
<path fill-rule="evenodd" clip-rule="evenodd" d="M15.6086 15.9908C16.0015 15.598 16.3078 15.1274 16.5082 14.6092C16.7011 14.1131 16.833 13.5461 16.8709 12.7158C16.9088 11.8839 16.9178 11.6183 16.9178 9.49996C16.9178 7.38163 16.9088 7.11589 16.8709 6.28405C16.833 5.4538 16.7011 4.88683 16.5082 4.39069C16.3124 3.87024 16.0054 3.39876 15.6086 3.00915C15.219 2.61229 14.7475 2.3052 14.227 2.10931C13.7308 1.91662 13.1638 1.78479 12.3336 1.74704C11.5018 1.70893 11.2361 1.69995 9.11776 1.69995C6.9994 1.69995 6.73368 1.70893 5.90186 1.7469C5.0716 1.78479 4.50462 1.91662 4.00848 2.10945C3.48803 2.30532 3.01656 2.61234 2.62695 3.00913C2.23007 3.39871 1.92297 3.87018 1.72704 4.39065C1.53436 4.88683 1.40253 5.4538 1.36478 6.28405C1.32666 7.11589 1.31769 7.3816 1.31769 9.49996C1.31769 11.6183 1.32666 11.8841 1.36478 12.7158C1.40268 13.5461 1.53452 14.1131 1.72734 14.6092C1.92321 15.1298 2.23023 15.6011 2.62702 15.9908C3.01662 16.3876 3.48809 16.6946 4.00854 16.8904C4.50472 17.0832 5.0717 17.2151 5.90192 17.253C6.73386 17.291 6.99948 17.3 9.11783 17.3C11.2362 17.3 11.5019 17.291 12.3337 17.253C13.164 17.2151 13.731 17.0832 14.227 16.8904C14.7452 16.69 15.2158 16.3836 15.6086 15.9908ZM2.51708 8.5819C2.51738 8.83424 2.51775 9.13447 2.51775 9.49998C2.51775 9.86548 2.51738 10.1657 2.51708 10.418C2.51588 11.4031 2.51558 11.6582 2.54124 12.2186C2.57319 12.921 2.61156 13.4373 2.72874 13.8263C2.8414 14.2004 2.96775 14.581 3.38025 15.0405C3.79275 15.4998 4.19062 15.7079 4.69743 15.8608C5.20424 16.0136 5.84121 16.0464 6.39431 16.0716C7.02167 16.1003 7.27031 16.1002 8.58626 16.0998H9.11776C9.46934 16.0998 9.76052 16.1001 10.0068 16.1004C11.016 16.1015 11.2708 16.1018 11.8366 16.0758C12.5391 16.0439 13.0554 16.0055 13.4444 15.8884C13.8184 15.7757 14.1991 15.6494 14.6584 15.2368C15.1178 14.8244 15.3259 14.4264 15.4788 13.9197C15.6316 13.4128 15.6645 12.7758 15.6897 12.2228C15.7183 11.5962 15.7182 11.3483 15.7179 10.0369V10.0368L15.7178 9.50042V8.96892C15.7182 7.65297 15.7183 7.40433 15.6896 6.77697C15.6644 6.22387 15.6315 5.5869 15.4788 5.08009C15.3259 4.57329 15.1178 4.17541 14.6584 3.76291C14.1991 3.35041 13.8183 3.22406 13.4444 3.1114C13.0552 2.99422 12.539 2.95585 11.8365 2.9239C11.2707 2.89798 11.016 2.89826 10.0068 2.89936C9.76053 2.89964 9.46935 2.89996 9.11776 2.89996L8.58614 2.89987C7.2703 2.89952 7.02166 2.89945 6.39431 2.92807C5.84121 2.9533 5.20424 2.98615 4.69743 3.139C4.19062 3.29186 3.79275 3.49994 3.38025 3.95932C2.96775 4.4187 2.8414 4.79938 2.72874 5.17339C2.61156 5.56244 2.57319 6.07868 2.54124 6.7812C2.51558 7.34152 2.51588 7.59676 2.51708 8.5819ZM9.11764 6.80013C7.62658 6.80013 6.41783 8.00888 6.41783 9.49994C6.41783 10.991 7.62658 12.1997 9.11764 12.1997C10.6087 12.1997 11.8174 10.991 11.8174 9.49994C11.8174 8.00888 10.6087 6.80013 9.11764 6.80013ZM5.21783 9.49994C5.21783 7.34613 6.96383 5.60013 9.11764 5.60013C11.2714 5.60013 13.0174 7.34613 13.0174 9.49994C13.0174 11.6537 11.2714 13.3997 9.11764 13.3997C6.96383 13.3997 5.21783 11.6537 5.21783 9.49994ZM13.2813 6.23631C13.7784 6.23631 14.1813 5.83338 14.1813 5.33631C14.1813 4.83926 13.7784 4.43631 13.2813 4.43631C12.7843 4.43631 12.3813 4.83926 12.3813 5.33631C12.3813 5.83338 12.7843 6.23631 13.2813 6.23631Z" fill="white"/>
</svg>
