<svg width="19" height="19" viewBox="0 0 19 19" fill="none" xmlns="http://www.w3.org/2000/svg">
<path fill-rule="evenodd" clip-rule="evenodd" d="M8.89777 6.13557C8.89777 4.11782 10.533 2.4823 12.5497 2.4823C13.7969 2.4823 14.7827 3.10693 15.416 3.99713L15.3377 3.80274C16.0556 3.662 16.7303 3.39945 17.3393 3.03811C17.1038 3.77432 16.6044 4.3928 15.9534 4.78256C16.5915 4.70609 17.1985 4.53693 17.7635 4.28656L17.7622 4.28859C17.3406 4.91992 16.8061 5.47411 16.1903 5.91936L16.1617 5.84851C16.1953 6.06512 16.2124 6.28357 16.2124 6.50097C16.2124 10.8815 12.8758 15.9695 6.74321 15.9695C4.86444 15.9695 3.11474 15.4191 1.6418 14.4741C1.40938 14.3249 1.34186 14.0157 1.49098 13.7832C1.49702 13.7738 1.50333 13.7647 1.50989 13.7558C1.58792 13.5805 1.77316 13.4685 1.97368 13.4921C3.15779 13.6316 4.34502 13.4692 5.37455 12.9704C4.34688 12.5859 3.54213 11.7452 3.20589 10.6962C3.15744 10.5451 3.1922 10.3796 3.29736 10.2607C3.3226 10.2322 3.35099 10.2074 3.38173 10.1865C2.58598 9.52567 2.07941 8.52891 2.07941 7.41372V7.37313C2.07941 7.21367 2.1638 7.06612 2.30123 6.98527C2.38531 6.9358 2.48156 6.91582 2.57553 6.92549C2.27626 6.39977 2.10513 5.7913 2.10513 5.14351C2.10513 4.57949 2.11012 3.8971 2.4902 3.28443C2.57459 3.14841 2.7197 3.07304 2.86873 3.07161C3.04856 3.03009 3.24459 3.09013 3.36911 3.24283C4.71782 4.89673 6.67565 6.03052 8.9015 6.30169C8.89903 6.24664 8.89777 6.19126 8.89777 6.13557ZM6.74321 14.9695C5.65467 14.9695 4.61532 14.7632 3.66006 14.3881C4.80853 14.2509 5.91783 13.8373 6.85684 13.1014C7.00677 12.9839 7.06647 12.7847 7.00592 12.6041C6.94536 12.4236 6.77766 12.3006 6.58721 12.2973C5.6566 12.2809 4.83963 11.7928 4.3664 11.0618C4.64445 11.0513 4.91525 11.0095 5.17558 10.9391C5.37716 10.8846 5.51476 10.6986 5.50787 10.4899C5.50099 10.2812 5.35142 10.1046 5.14669 10.0635C4.12692 9.85882 3.31511 9.07964 3.06184 8.07865C3.34293 8.15962 3.63807 8.20742 3.94246 8.21738C4.14327 8.22395 4.32411 8.09661 4.38559 7.90533C4.44708 7.71405 4.37431 7.50519 4.20728 7.39352C3.48202 6.90866 3.00513 6.08082 3.00513 5.14351C3.00513 4.85691 3.01051 4.60807 3.04221 4.38592C4.66547 6.10942 6.92791 7.22502 9.45383 7.3522C9.61019 7.36007 9.76122 7.29425 9.86189 7.17434C9.96257 7.05444 10.0013 6.8943 9.96645 6.74165C9.9217 6.54542 9.89777 6.34316 9.89777 6.13557C9.89777 4.66983 11.0856 3.4823 12.5497 3.4823C14.1017 3.4823 15.2124 4.91635 15.2124 6.50097C15.2124 10.4515 12.2087 14.9695 6.74321 14.9695Z" fill="white"/>
</svg>
